<?xml version="1.0" standalone="no"?><!DOCTYPE svg PUBLIC "-//W3C//DTD SVG 1.1//EN" "http://www.w3.org/Graphics/SVG/1.1/DTD/svg11.dtd"><svg width="300px" height="300px" version="1.1" xmlns="http://www.w3.org/2000/svg" xmlns:xlink="http://www.w3.org/1999/xlink" xml:space="preserve" style="fill-rule:evenodd;clip-rule:evenodd;stroke-linejoin:round;stroke-miterlimit:1.41421;"><g><g id="Layer1"><g transform="matrix(1.02365,0,0,0.996774,-9.56266,-5.4068)"><path d="M296.761,92.4476c0,-36.5611 -28.8604,-66.1998 -64.4615,-66.1998l-152.15,0c-35.6011,0 -64.4615,29.6386 -64.4615,66.1998l0,132.4c0,36.5611 28.8604,66.1998 64.4615,66.1998l152.15,0c35.6011,0 64.4615,-29.6386 64.4615,-66.1998l0,-132.4Z" style="fill:#18bab6;"/></g><g transform="matrix(0.884516,0,0,0.93928,18.1304,34.7128)"><g transform="matrix(-1.1892,6.01983e-16,-3.79059e-16,-1.85497,329.97,426.246)"><path d="M152.592,94.3232l72.1992,111.202l-144.398,0l72.1992,-111.202Z" style="fill:#000;"/></g><g transform="matrix(-1.1756,5.95095e-16,-3.78101e-16,-1.85028,327.933,425.977)"><path d="M152.592,94.3232l72.1992,111.202l-144.398,0l72.1992,-111.202Z" style="fill:#831919;"/></g><g transform="matrix(-0.363433,-0.677575,1.013,-1.40312,109.255,487.023)"><path d="M152.592,94.3232l72.1992,111.202l-144.398,0l72.1992,-111.202Z" style="fill:url(#tag1);"/></g><g transform="matrix(0.363433,-0.677575,-1.01581,-1.407,188.127,487.255)"><path d="M152.592,94.3232l72.1992,111.202l-144.398,0l72.1992,-111.202Z" style="fill:url(#tag2);"/></g><g transform="matrix(1.12055,0,0,1.1528,-21.2121,-67.3468)"><path d="M152.049,272.295l70.4831,-171.86l-69.3672,0.249786l-1.11589,171.611Z" style="fill:#fff;"/></g><g transform="matrix(1.05014,0,0,1.09366,2.47876,-57.6405)"><path d="M220.435,92.781l-162.845,0l40.7113,-25.8138l81.4225,0l40.7113,25.8138Z" style="fill:#831919;"/></g><g transform="matrix(1.07828,-0.0109883,0.0115885,1.13717,-15.632,-50.6901)"><path d="M153.029,63.7706l0.201503,18.6749l66.285,0.946738l-29.7246,-19.2243l-36.7619,-0.397302Z" style="fill:#fff;"/></g></g></g></g><defs><linearGradient id="tag1" x1="0" y1="0" x2="1" y2="0" gradientUnits="userSpaceOnUse" gradientTransform="matrix(-33.8985,-24.896,74.9324,-26.0567,186.162,190.473)"><stop offset="0%" style="stop-color:#bc0b0b;stop-opacity:1"/><stop offset="100%" style="stop-color:#f44545;stop-opacity:1"/></linearGradient><linearGradient id="tag2" x1="0" y1="0" x2="1" y2="0" gradientUnits="userSpaceOnUse" gradientTransform="matrix(-6.56781,-44.782,-112.398,21.1757,158.116,197.416)"><stop offset="0%" style="stop-color:#b70000;stop-opacity:1"/><stop offset="100%" style="stop-color:#ff2d2d;stop-opacity:1"/></linearGradient></defs></svg>